<svg width="67" height="66" viewBox="0 0 67 66" fill="none" xmlns="http://www.w3.org/2000/svg">
<path d="M33.2948 0.97658C33.7429 0.425268 34.447 0.143202 35.1512 0.245772C41.1556 1.05351 45.7902 6.20763 45.7902 12.4387C45.7902 13.8747 45.547 15.2594 45.0861 16.5415H45.7902C50.3096 16.5415 53.984 20.2212 53.984 24.7471C53.984 27.196 52.9085 29.4012 51.2058 30.9013H52.9598C58.0552 30.9013 62.1777 35.0297 62.1777 40.1326C62.1777 43.1071 60.7694 45.7482 58.593 47.4406C62.9587 48.1715 66.2746 51.9665 66.2746 56.5437C66.2746 61.6465 62.1521 65.775 57.0566 65.775H9.94258C4.84709 65.775 0.724609 61.6465 0.724609 56.5437C0.724609 51.9665 4.04052 48.1715 8.40625 47.4406C6.22978 45.7482 4.82148 43.1071 4.82148 40.1326C4.82148 35.0297 8.94396 30.9013 14.0395 30.9013H15.7934C14.0907 29.4012 13.0152 27.196 13.0152 24.7471C13.0152 20.2212 16.6896 16.5415 21.209 16.5415H23.283C28.929 16.5287 33.4996 11.9387 33.4996 6.28456C33.4996 5.10501 33.3076 3.98956 32.9491 2.93823C32.7186 2.27152 32.8467 1.51507 33.3076 0.963759L33.2948 0.97658Z" fill="#7BB1F1"/>
</svg>
