<svg width="51" height="67" viewBox="0 0 51 67" fill="none" xmlns="http://www.w3.org/2000/svg">
<path d="M25.5002 66.275C11.9293 66.275 0.918945 55.2646 0.918945 41.6937C0.918945 30.0176 17.5881 8.11215 22.2483 2.2229C23.0165 1.26269 24.1559 0.724976 25.385 0.724976H25.6154C26.8445 0.724976 27.9839 1.26269 28.7521 2.2229C33.4123 8.11215 50.0814 30.0176 50.0814 41.6937C50.0814 55.2646 39.0711 66.275 25.5002 66.275ZM13.2096 43.7422C13.2096 42.6155 12.2878 41.6937 11.1611 41.6937C10.0345 41.6937 9.11269 42.6155 9.11269 43.7422C9.11269 51.6671 15.5269 58.0812 23.4518 58.0812C24.5784 58.0812 25.5002 57.1594 25.5002 56.0328C25.5002 54.9061 24.5784 53.9843 23.4518 53.9843C17.7929 53.9843 13.2096 49.401 13.2096 43.7422Z" fill="#7BB1F1"/>
</svg>
