<svg width="39" height="68" viewBox="0 0 39 68" fill="none" xmlns="http://www.w3.org/2000/svg">
<path d="M19.5001 8.55626C16.0717 8.55626 13.2901 11.4054 13.2901 14.9172V36.7167C13.2901 39.0092 12.3716 40.944 11.3107 42.3487C9.95224 44.151 9.15012 46.3906 9.15012 48.8422C9.15012 54.6996 13.7817 59.4438 19.5001 59.4438C25.2185 59.4438 29.8501 54.6996 29.8501 48.8422C29.8501 46.3906 29.048 44.151 27.6895 42.362C26.6287 40.9573 25.7101 39.0225 25.7101 36.7299V14.9172C25.7101 11.4054 22.9285 8.55626 19.5001 8.55626ZM5.01012 14.9172C5.01012 6.72749 11.4918 0.0750122 19.5001 0.0750122C27.5084 0.0750122 33.9901 6.71424 33.9901 14.9172V36.7167C33.9901 36.7299 34.003 36.7564 34.016 36.7962C34.0419 36.8757 34.1195 37.0082 34.2359 37.1672C36.6811 40.4007 38.1301 44.4558 38.1301 48.8422C38.1301 59.3775 29.7854 67.925 19.5001 67.925C9.2148 67.925 0.870117 59.3775 0.870117 48.8422C0.870117 44.4426 2.31912 40.3875 4.7643 37.1672C4.88074 37.0082 4.95837 36.8757 4.98424 36.7962C4.99718 36.7564 5.01012 36.7299 5.01012 36.7167V14.9172ZM25.7101 48.8422C25.7101 52.354 22.9285 55.2031 19.5001 55.2031C16.0717 55.2031 13.2901 52.354 13.2901 48.8422C13.2901 46.0725 15.0237 43.7137 17.4301 42.8391V14.9172C17.4301 13.751 18.3616 12.7969 19.5001 12.7969C20.6386 12.7969 21.5701 13.751 21.5701 14.9172V42.8391C23.9765 43.7137 25.7101 46.0725 25.7101 48.8422Z" fill="#7BB1F1"/>
</svg>
