<svg width="77" height="66" viewBox="0 0 77 66" fill="none" xmlns="http://www.w3.org/2000/svg">
<path d="M34.3534 64.1431L7.30096 38.8872C6.67218 38.3034 6.07334 37.6746 5.51942 37.0308H18.5441C21.9275 37.0308 24.9816 34.9948 26.2841 31.8659L27.856 28.0932L35.2367 44.4863C35.8056 45.7589 37.0482 46.5823 38.4405 46.5972C39.8327 46.6122 41.1053 45.8487 41.7341 44.6061L48.0817 31.8958L48.3362 32.4048C49.7585 35.2493 52.6628 37.0458 55.8366 37.0458H71.4812C70.9273 37.6895 70.3285 38.3183 69.6997 38.9022L42.6473 64.1431C41.5245 65.1911 40.0423 65.775 38.5003 65.775C36.9583 65.775 35.4762 65.1911 34.3534 64.1431ZM75.5833 29.8448H55.8217C55.3726 29.8448 54.9534 29.5903 54.7438 29.1861L51.2705 22.2545C50.6567 21.0419 49.4141 20.2634 48.0518 20.2634C46.6894 20.2634 45.4468 21.0269 44.833 22.2545L38.6351 34.6504L30.9999 17.5986C30.416 16.2961 29.0986 15.4577 27.6764 15.4877C26.2541 15.5176 24.9666 16.371 24.4127 17.7034L19.652 29.1262C19.4723 29.5753 19.0232 29.8598 18.5441 29.8598H2.57015C2.18091 29.8598 1.8216 29.9196 1.47727 30.0244C0.623932 27.6291 0.174805 25.084 0.174805 22.4941V21.6258C0.174805 11.1611 7.73511 2.23843 18.0501 0.516774C24.8768 -0.621015 31.8233 1.60965 36.7038 6.49017L38.5003 8.28668L40.2968 6.49017C45.1774 1.60965 52.1239 -0.621015 58.9506 0.516774C69.2656 2.23843 76.8259 11.1611 76.8259 21.6258V22.4941C76.8259 25.0242 76.4067 27.5093 75.5833 29.8448Z" fill="#7BB1F1"/>
</svg>
