<svg width="83" height="67" viewBox="0 0 83 67" fill="none" xmlns="http://www.w3.org/2000/svg">
<path d="M0.0996094 29.3538C0.0996094 13.5296 12.947 0.650024 28.8202 0.650024H31.8974C44.1037 0.650024 55.1303 9.52232 57.1946 21.16C57.4895 22.8244 58.0665 24.4503 59.1307 25.769L64.5158 32.5032C65.3108 33.5018 65.7467 34.7309 65.7467 36.0112C65.7467 39.1094 63.2337 41.6188 60.1308 41.6188H57.5408V45.7156L43.5908 47.4568C42.1804 47.6361 41.1291 48.8267 41.1291 50.2478C41.1291 51.7329 42.283 52.962 43.7703 53.0516L57.5408 53.9094V55.9578C57.5408 59.3506 54.7842 62.1031 51.3864 62.1031H41.1291V63.1274C41.1291 64.8301 39.7571 66.2 38.0518 66.2H32.9232H12.4084C10.139 66.2 8.3055 64.3692 8.3055 62.1031V52.7956C8.3055 50.6575 7.4208 48.6347 6.11299 46.9319C2.22801 41.926 0.0996094 35.7423 0.0996094 29.3538ZM45.232 29.3281C46.3202 29.3281 47.3638 28.8965 48.1332 28.1282C48.9027 27.3599 49.3349 26.3178 49.3349 25.2313C49.3349 24.1447 48.9027 23.1027 48.1332 22.3343C47.3638 21.566 46.3202 21.1344 45.232 21.1344C44.1438 21.1344 43.1002 21.566 42.3308 22.3343C41.5613 23.1027 41.1291 24.1447 41.1291 25.2313C41.1291 26.3178 41.5613 27.3599 42.3308 28.1282C43.1002 28.8965 44.1438 29.3281 45.232 29.3281ZM59.5923 49.8125C59.5923 48.9976 59.9165 48.2161 60.4936 47.6398C61.0707 47.0636 61.8534 46.7399 62.6695 46.7399C63.4856 46.7399 64.2683 47.0636 64.8454 47.6398C65.4225 48.2161 65.7467 48.9976 65.7467 49.8125C65.7467 50.6274 65.4225 51.409 64.8454 51.9852C64.2683 52.5615 63.4856 52.8852 62.6695 52.8852C61.8534 52.8852 61.0707 52.5615 60.4936 51.9852C59.9165 51.409 59.5923 50.6274 59.5923 49.8125ZM79.0813 46.7399C79.8974 46.7399 80.6801 47.0636 81.2572 47.6398C81.8343 48.2161 82.1585 48.9976 82.1585 49.8125C82.1585 50.6274 81.8343 51.409 81.2572 51.9852C80.6801 52.5615 79.8974 52.8852 79.0813 52.8852C78.2652 52.8852 77.4825 52.5615 76.9054 51.9852C76.3283 51.409 76.0041 50.6274 76.0041 49.8125C76.0041 48.9976 76.3283 48.2161 76.9054 47.6398C77.4825 47.0636 78.2652 46.7399 79.0813 46.7399ZM76.0041 62.1031C76.0041 61.2882 76.3283 60.5067 76.9054 59.9305C77.4825 59.3542 78.2652 59.0305 79.0813 59.0305C79.8974 59.0305 80.6801 59.3542 81.2572 59.9305C81.8343 60.5067 82.1585 61.2882 82.1585 62.1031C82.1585 62.9181 81.8343 63.6996 81.2572 64.2758C80.6801 64.8521 79.8974 65.1758 79.0813 65.1758C78.2652 65.1758 77.4825 64.8521 76.9054 64.2758C76.3283 63.6996 76.0041 62.9181 76.0041 62.1031ZM70.8754 40.5946C71.6915 40.5946 72.4742 40.9183 73.0513 41.4945C73.6284 42.0707 73.9526 42.8523 73.9526 43.6672C73.9526 44.4821 73.6284 45.2637 73.0513 45.8399C72.4742 46.4161 71.6915 46.7399 70.8754 46.7399C70.0593 46.7399 69.2766 46.4161 68.6995 45.8399C68.1224 45.2637 67.7982 44.4821 67.7982 43.6672C67.7982 42.8523 68.1224 42.0707 68.6995 41.4945C69.2766 40.9183 70.0593 40.5946 70.8754 40.5946ZM76.0041 37.5219C76.0041 36.707 76.3283 35.9254 76.9054 35.3492C77.4825 34.773 78.2652 34.4492 79.0813 34.4492C79.8974 34.4492 80.6801 34.773 81.2572 35.3492C81.8343 35.9254 82.1585 36.707 82.1585 37.5219C82.1585 38.3368 81.8343 39.1184 81.2572 39.6946C80.6801 40.2708 79.8974 40.5946 79.0813 40.5946C78.2652 40.5946 77.4825 40.2708 76.9054 39.6946C76.3283 39.1184 76.0041 38.3368 76.0041 37.5219ZM70.8754 52.8852C71.6915 52.8852 72.4742 53.2089 73.0513 53.7851C73.6284 54.3614 73.9526 55.1429 73.9526 55.9578C73.9526 56.7728 73.6284 57.5543 73.0513 58.1305C72.4742 58.7068 71.6915 59.0305 70.8754 59.0305C70.0593 59.0305 69.2766 58.7068 68.6995 58.1305C68.1224 57.5543 67.7982 56.7728 67.7982 55.9578C67.7982 55.1429 68.1224 54.3614 68.6995 53.7851C69.2766 53.2089 70.0593 52.8852 70.8754 52.8852Z" fill="#7BB1F1"/>
</svg>
