<svg width="59" height="77" viewBox="0 0 59 77" fill="none" xmlns="http://www.w3.org/2000/svg">
<path d="M0.524414 44.4229C0.524414 30.4537 11.8658 19.0839 25.8784 19.0839H28.5948C39.3703 19.0839 49.1044 26.9161 50.9267 37.1896C51.187 38.6589 51.6964 40.0942 52.6358 41.2583L57.3897 47.2032C58.0914 48.0847 58.4763 49.1697 58.4763 50.2999C58.4763 53.035 56.2578 55.2502 53.5187 55.2502H51.2323V58.8668L38.9175 60.4039C37.6725 60.5621 36.7443 61.6132 36.7443 62.8677C36.7443 64.1788 37.763 65.2638 39.076 65.3429L51.2323 66.1001V67.9084C51.2323 70.9034 48.7988 73.3334 45.7993 73.3334H36.7443V74.2375C36.7443 75.7407 35.5332 76.95 34.0278 76.95H29.5003H11.3904C9.38697 76.95 7.7684 75.3338 7.7684 73.3334V65.1168C7.7684 63.2294 6.98741 61.4437 5.8329 59.9405C2.40332 55.5214 0.524414 50.0626 0.524414 44.4229ZM40.3663 44.4003C41.3269 44.4003 42.2482 44.0193 42.9275 43.341C43.6067 42.6628 43.9883 41.7429 43.9883 40.7837C43.9883 39.8245 43.6067 38.9046 42.9275 38.2263C42.2482 37.5481 41.3269 37.167 40.3663 37.167C39.4057 37.167 38.4844 37.5481 37.8052 38.2263C37.1259 38.9046 36.7443 39.8245 36.7443 40.7837C36.7443 41.7429 37.1259 42.6628 37.8052 43.341C38.4844 44.0193 39.4057 44.4003 40.3663 44.4003Z" fill="#7BB1F1"/>
<path d="M7.74048 25.5915L12.888 24.2122L11.371 34.7413C11.3709 34.7416 11.3709 34.742 11.3708 34.7423C11.157 36.2119 11.9923 37.6333 13.3779 38.1661C14.7694 38.7011 16.331 38.1956 17.1587 36.9714L17.1615 36.9672L29.1694 19.0361L29.1712 19.0334C29.9003 17.9379 29.8891 16.4929 29.1128 15.4147C28.3432 14.346 26.9886 13.8555 25.7037 14.1998L20.5558 15.5792L22.0716 5.04388C22.0716 5.04343 22.0717 5.04298 22.0718 5.04253C22.2854 3.57302 21.4501 2.15187 20.0646 1.61911C18.6731 1.08408 17.1115 1.58956 16.2839 2.81381L16.2839 2.81381L16.281 2.81801L4.27317 20.7491L4.27317 20.7491L4.27137 20.7518C3.54224 21.8473 3.55348 23.2923 4.32979 24.3705C5.09702 25.436 6.45793 25.9352 7.74048 25.5915Z" fill="#7BB1F1" stroke="white" stroke-width="2.3"/>
</svg>
