<svg width="66" height="67" viewBox="0 0 66 67" fill="none" xmlns="http://www.w3.org/2000/svg">
<path d="M37.0965 4.82185C37.0965 7.08793 38.9273 8.91873 41.1934 8.91873H45.2902C47.5563 8.91873 49.3871 10.7495 49.3871 13.0156C49.3871 15.2817 47.5563 17.1125 45.2902 17.1125H4.32148C2.0554 17.1125 0.224609 18.9433 0.224609 21.2093C0.224609 23.4754 2.0554 25.3062 4.32148 25.3062H45.2902C52.0757 25.3062 57.5809 19.801 57.5809 13.0156C57.5809 6.23015 52.0757 0.724976 45.2902 0.724976H41.1934C38.9273 0.724976 37.0965 2.55577 37.0965 4.82185ZM45.2902 49.8875C45.2902 52.1536 47.121 53.9843 49.3871 53.9843H53.484C60.2694 53.9843 65.7746 48.4792 65.7746 41.6937C65.7746 34.9083 60.2694 29.4031 53.484 29.4031H4.32148C2.0554 29.4031 0.224609 31.2339 0.224609 33.5C0.224609 35.7661 2.0554 37.5968 4.32148 37.5968H53.484C55.7501 37.5968 57.5809 39.4276 57.5809 41.6937C57.5809 43.9598 55.7501 45.7906 53.484 45.7906H49.3871C47.121 45.7906 45.2902 47.6214 45.2902 49.8875ZM16.6121 66.275H20.709C27.4944 66.275 32.9996 60.7698 32.9996 53.9843C32.9996 47.1989 27.4944 41.6937 20.709 41.6937H4.32148C2.0554 41.6937 0.224609 43.5245 0.224609 45.7906C0.224609 48.0567 2.0554 49.8875 4.32148 49.8875H20.709C22.9751 49.8875 24.8059 51.7183 24.8059 53.9843C24.8059 56.2504 22.9751 58.0812 20.709 58.0812H16.6121C14.346 58.0812 12.5152 59.912 12.5152 62.1781C12.5152 64.4442 14.346 66.275 16.6121 66.275Z" fill="#7BB1F1"/>
</svg>
