<svg width="67" height="66" viewBox="0 0 67 66" fill="none" xmlns="http://www.w3.org/2000/svg">
<path fill-rule="evenodd" clip-rule="evenodd" d="M20.4752 14.9363C21.1766 13.122 22.3361 12.5405 24.2791 12.2752C25.2898 12.1373 26.2924 12.5362 27.0138 13.2575C28.4213 14.6651 30.7145 14.6281 32.0759 13.1759L33.5577 11.5954C35.5191 9.50316 35.5911 6.26985 33.7247 4.09241L32.4591 2.61585C30.7651 0.639493 27.9546 0.0476768 25.6075 1.17304L13.8417 6.81414C12.3749 7.51741 11.2746 8.80907 10.8135 10.369L0.809125 44.2136C0.253318 46.0939 0.688163 48.1447 2.02453 49.5795C15.1812 63.7046 26.8465 66.028 46.1396 62.0532C47.5777 61.7569 49.0719 62.0095 50.3694 62.697C53.9334 64.5854 56.9722 65.4305 61.3197 65.391C64.2384 65.3646 66.4271 62.8318 66.4271 59.913V37.1084C66.4271 34.7187 64.9621 32.5098 62.6467 31.9189C56.9164 30.4565 53.348 31.6281 49.5941 35.2356C48.2439 36.5331 46.4649 37.225 44.6763 37.2064C46.8665 39.9423 47.7639 43.3783 47.0695 46.758C46.9416 47.3802 46.3337 47.7809 45.7115 47.653C45.0894 47.5252 44.6887 46.9173 44.8165 46.2951C45.3719 43.5919 44.6519 40.8101 42.8144 38.5617C40.977 36.3136 38.173 34.783 35.0189 34.3068C31.8649 33.8307 28.6195 34.4481 25.9966 36.023C23.3734 37.598 21.588 40.0017 21.0326 42.7048C20.9047 43.3269 20.2968 43.7277 19.6746 43.5998C19.0525 43.472 18.6518 42.864 18.7796 42.2419C19.4795 38.8357 21.7047 35.9172 24.8126 34.0511C25.0185 33.9275 25.2273 33.809 25.439 33.6956C23.0751 32.839 21.2362 30.9788 21.0558 28.3623L20.256 16.766C20.2133 16.1466 20.2513 15.5154 20.4752 14.9363Z" fill="#7BB1F1"/>
<path d="M47.7129 7.30972L47.7129 7.30971L47.709 7.31299L36.8289 16.5692L36.8264 16.5713C36.0436 17.2411 35.7423 18.3332 36.0987 19.3147C36.4497 20.2815 37.3684 20.9486 38.4109 20.9632L41.3485 21.0044L38.7245 26.8978C38.7243 26.8982 38.7242 26.8985 38.7241 26.8988C38.2488 27.9626 38.5759 29.2132 39.5073 29.9108C40.4436 30.6122 41.7298 30.5632 42.6143 29.8174L42.6182 29.8142L53.4983 20.558L53.5008 20.5559C54.2836 19.8861 54.5849 18.7939 54.2286 17.8125C53.8762 16.8419 52.959 16.1827 51.9163 16.1681L48.9783 16.127L51.6027 10.2293C51.6029 10.2288 51.6031 10.2284 51.6033 10.2279C52.0784 9.16422 51.7512 7.91387 50.82 7.21633C49.8836 6.51498 48.5974 6.56391 47.7129 7.30972Z" fill="#7BB1F1" stroke="white" stroke-width="2.3"/>
</svg>
