<svg width="97" height="70" viewBox="0 0 97 70" fill="none" xmlns="http://www.w3.org/2000/svg">
<path fill-rule="evenodd" clip-rule="evenodd" d="M29.1317 0.66333C13.2585 0.66333 0.411133 13.5429 0.411133 29.3671C0.411133 35.7556 2.53954 41.9393 6.42451 46.9452C7.73232 48.648 8.61702 50.6708 8.61702 52.8089V62.1165C8.61702 64.3825 10.4505 66.2133 12.72 66.2133H33.2347H38.3634C40.0686 66.2133 41.4406 64.8434 41.4406 63.1407V62.1165H51.6979C55.0957 62.1165 57.8524 59.3639 57.8524 55.9711V53.9227L44.0818 53.0649C42.5945 52.9753 41.4406 51.7462 41.4406 50.2611C41.4406 48.84 42.492 47.6494 43.9023 47.4701L57.8524 45.729V41.6321H60.4423C63.5452 41.6321 66.0582 39.1227 66.0582 36.0245C66.0582 34.7442 65.6223 33.5151 64.8274 32.5165L59.4422 25.7823C58.378 24.4636 57.8011 22.8377 57.5062 21.1733C55.4419 9.53562 44.4152 0.66333 32.209 0.66333H29.1317ZM48.4447 28.1415C47.6753 28.9098 46.6317 29.3415 45.5435 29.3415C44.4553 29.3415 43.4118 28.9098 42.6423 28.1415C41.8728 27.3732 41.4406 26.3311 41.4406 25.2446C41.4406 24.158 41.8728 23.116 42.6423 22.3477C43.4118 21.5793 44.4553 21.1477 45.5435 21.1477C46.6317 21.1477 47.6753 21.5793 48.4447 22.3477C49.2142 23.116 49.6465 24.158 49.6465 25.2446C49.6465 26.3311 49.2142 27.3732 48.4447 28.1415ZM72.3187 40.2952L72.6739 39.0855C73.1397 37.5061 74.3591 36.2683 75.9216 35.7808C78.1091 35.0983 80.4867 36.0243 81.6295 38.0137L82.8318 40.0935C84.2164 42.4828 86.885 43.8169 89.6258 43.4839L91.7274 43.2257C93.8055 42.967 95.7694 44.2403 96.392 46.236C96.9239 47.9406 96.3514 49.8026 94.9533 50.9169L92.6494 52.7502C90.6204 54.3653 89.7941 57.0625 90.5674 59.5412L91.1259 61.331C91.8527 63.6605 90.5507 66.1321 88.2283 66.8567C87.2766 67.1536 86.2442 67.1172 85.3124 66.7533L82.5775 65.6815C80.688 64.9461 78.5998 64.8729 76.668 65.4756L75.9578 65.6972C75.3967 65.8722 74.8485 66.1134 74.3393 66.4048L70.2204 68.7655C67.8408 70.1314 64.8118 68.941 63.9963 66.3274C63.6528 65.2265 63.7652 64.038 64.3142 63.025L64.961 61.8256C65.5176 60.7868 65.6375 59.5726 65.2874 58.4504C64.9417 57.3425 64.1712 56.4216 63.1462 55.8841L60.4253 54.4573C59.3794 53.9029 58.5858 52.9581 58.2335 51.8288C57.4021 49.189 59.1471 46.4389 61.8888 46.0589L66.3411 45.4414C69.1747 45.0561 71.5151 43.0399 72.3187 40.2952ZM71.9566 50.2183C71.3973 49.925 70.7446 49.8659 70.1418 50.054C69.539 50.2421 69.0357 50.6619 68.7424 51.2211C68.4492 51.7803 68.3901 52.4331 68.5782 53.0358C68.7662 53.6386 69.1861 54.142 69.7452 54.4352C70.3045 54.7284 70.9572 54.7875 71.56 54.5995C72.1628 54.4114 72.6661 53.9916 72.9594 53.4324C73.2526 52.8732 73.3117 52.2204 73.1236 51.6176C72.9356 51.0149 72.5157 50.5115 71.9566 50.2183ZM79.6694 47.4466C79.5228 47.7262 79.4932 48.0526 79.5873 48.354C79.6813 48.6553 79.8912 48.907 80.1708 49.0536C80.4504 49.2003 80.7768 49.2298 81.0782 49.1358C81.3796 49.0417 81.6312 48.8318 81.7779 48.5522C81.9245 48.2726 81.954 47.9462 81.86 47.6449C81.766 47.3435 81.556 47.0918 81.2765 46.9452C80.9968 46.7986 80.6705 46.769 80.3691 46.863C80.0677 46.9571 79.816 47.167 79.6694 47.4466ZM83.1748 54.2C82.6156 53.9068 81.9628 53.8477 81.36 54.0358C80.7573 54.2238 80.2539 54.6437 79.9606 55.2029C79.6674 55.7621 79.6083 56.4148 79.7964 57.0176C79.9845 57.6204 80.4043 58.1237 80.9635 58.417C81.5227 58.7102 82.1755 58.7693 82.7782 58.5812C83.381 58.3932 83.8844 57.9734 84.1776 57.4142C84.4708 56.855 84.5299 56.2022 84.3419 55.5994C84.1538 54.9966 83.734 54.4933 83.1748 54.2Z" fill="#7BB1F1"/>
</svg>
