<svg width="58" height="67" viewBox="0 0 58 67" fill="none" xmlns="http://www.w3.org/2000/svg">
<path d="M37.4306 17.0887C37.4306 17.0887 52.3861 -2.54035 57.0597 1.19852C61.7332 4.93738 42.1042 20.8276 42.1042 20.8276C49.5819 26.4358 42.1042 32.9788 42.1042 32.9788L26.214 17.0887C26.214 17.0887 30.8876 9.61096 37.4306 17.0887Z" fill="#7BB1F1"/>
<path d="M0.0419922 32.0441C0.0419922 32.0441 19.671 18.0234 20.6057 18.9581L40.2348 38.5871C41.1695 39.5219 27.1487 60.0856 27.1487 60.0856L12.1933 46.0649L13.128 37.6524L6.585 39.5219L0.0419922 32.0441Z" fill="#7BB1F1"/>
<path d="M37.4306 17.0887C37.4306 17.0887 52.3861 -2.54035 57.0597 1.19852C61.7332 4.93738 42.1042 20.8276 42.1042 20.8276C49.5819 26.4358 42.1042 32.9788 42.1042 32.9788L26.214 17.0887C26.214 17.0887 30.8876 9.61096 37.4306 17.0887Z" fill="#7BB1F1"/>
<path d="M0.0419922 32.0441C0.0419922 32.0441 19.671 18.0234 20.6057 18.9581L40.2348 38.5871C41.1695 39.5219 27.1487 60.0856 27.1487 60.0856L12.1933 46.0649L13.128 37.6524L6.585 39.5219L0.0419922 32.0441Z" fill="#7BB1F1"/>
<mask id="path-2-inside-1_487_4710" fill="white">
<path d="M22.4693 66.2732C18.3077 66.1825 14.9619 62.7805 14.9619 58.597C14.9619 54.3566 18.3995 50.919 22.6399 50.919C23.6228 50.919 24.5625 51.1037 25.4263 51.4402C26.5368 45.6994 31.5895 41.3641 37.6547 41.3641C43.5409 41.3641 48.4734 45.4471 49.7746 50.9354C49.9419 50.9245 50.1107 50.919 50.2808 50.919C54.5213 50.919 57.9588 54.3566 57.9588 58.597C57.9588 62.8375 54.5213 66.275 50.2808 66.275C50.2238 66.275 50.1669 66.2744 50.1102 66.2732V66.275H22.4693V66.2732Z"/>
</mask>
<path d="M22.4693 66.2732C18.3077 66.1825 14.9619 62.7805 14.9619 58.597C14.9619 54.3566 18.3995 50.919 22.6399 50.919C23.6228 50.919 24.5625 51.1037 25.4263 51.4402C26.5368 45.6994 31.5895 41.3641 37.6547 41.3641C43.5409 41.3641 48.4734 45.4471 49.7746 50.9354C49.9419 50.9245 50.1107 50.919 50.2808 50.919C54.5213 50.919 57.9588 54.3566 57.9588 58.597C57.9588 62.8375 54.5213 66.275 50.2808 66.275C50.2238 66.275 50.1669 66.2744 50.1102 66.2732V66.275H22.4693V66.2732Z" fill="#7BB1F1"/>
<path d="M22.4693 66.2732H24.7693V64.0228L22.5194 63.9737L22.4693 66.2732ZM25.4263 51.4402L24.5913 53.5833L27.1607 54.5844L27.6844 51.877L25.4263 51.4402ZM49.7746 50.9354L47.5366 51.466L47.9849 53.3568L49.924 53.2306L49.7746 50.9354ZM50.1102 66.2732L50.1604 63.9737L47.8102 63.9224V66.2732H50.1102ZM50.1102 66.275V68.575H52.4102V66.275H50.1102ZM22.4693 66.275H20.1693V68.575H22.4693V66.275ZM22.5194 63.9737C19.6055 63.9102 17.2619 61.527 17.2619 58.597H12.6619C12.6619 64.0339 17.0098 68.4547 22.4192 68.5726L22.5194 63.9737ZM17.2619 58.597C17.2619 55.6268 19.6697 53.219 22.6399 53.219V48.619C17.1292 48.619 12.6619 53.0863 12.6619 58.597H17.2619ZM22.6399 53.219C23.3326 53.219 23.9894 53.3488 24.5913 53.5833L26.2613 49.2971C25.1356 48.8586 23.913 48.619 22.6399 48.619V53.219ZM27.6844 51.877C28.5896 47.1975 32.7121 43.6641 37.6547 43.6641V39.0641C30.4669 39.0641 24.4839 44.2013 23.1681 51.0034L27.6844 51.877ZM37.6547 43.6641C42.451 43.6641 46.4757 46.9912 47.5366 51.466L52.0125 50.4049C50.4711 43.903 44.6309 39.0641 37.6547 39.0641V43.6641ZM49.924 53.2306C50.0416 53.2229 50.1606 53.219 50.2808 53.219V48.619C50.0609 48.619 49.8422 48.6262 49.6252 48.6403L49.924 53.2306ZM50.2808 53.219C53.251 53.219 55.6588 55.6268 55.6588 58.597H60.2588C60.2588 53.0863 55.7915 48.619 50.2808 48.619V53.219ZM55.6588 58.597C55.6588 61.5672 53.251 63.975 50.2808 63.975V68.575C55.7915 68.575 60.2588 64.1077 60.2588 58.597H55.6588ZM50.2808 63.975C50.2405 63.975 50.2003 63.9746 50.1604 63.9737L50.06 68.5726C50.1335 68.5742 50.2071 68.575 50.2808 68.575V63.975ZM47.8102 66.2732V66.275H52.4102V66.2732H47.8102ZM24.7693 66.275V66.2732H20.1693V66.275H24.7693ZM50.1102 63.975H22.4693V68.575H50.1102V63.975Z" fill="white" mask="url(#path-2-inside-1_487_4710)"/>
</svg>
