<svg width="75" height="52" viewBox="0 0 75 52" fill="none" xmlns="http://www.w3.org/2000/svg">
<path d="M4.22988 0.123291C6.2746 0.123291 7.92655 1.77524 7.92655 3.81997V33.3934H33.8033V14.91C33.8033 12.8653 35.4552 11.2133 37.5 11.2133H63.3767C69.4993 11.2133 74.4667 16.1807 74.4667 22.3033V48.1801C74.4667 50.2248 72.8148 51.8767 70.77 51.8767C68.7253 51.8767 67.0734 50.2248 67.0734 48.1801V44.4834H41.1966H37.5H7.92655V48.1801C7.92655 50.2248 6.2746 51.8767 4.22988 51.8767C2.18515 51.8767 0.533203 50.2248 0.533203 48.1801V3.81997C0.533203 1.77524 2.18515 0.123291 4.22988 0.123291ZM20.8649 11.2133C23.316 11.2133 25.6666 12.187 27.3998 13.9201C29.1329 15.6533 30.1066 18.004 30.1066 20.455C30.1066 22.9061 29.1329 25.2567 27.3998 26.9899C25.6666 28.723 23.316 29.6967 20.8649 29.6967C18.4139 29.6967 16.0632 28.723 14.3301 26.9899C12.5969 25.2567 11.6232 22.9061 11.6232 20.455C11.6232 18.004 12.5969 15.6533 14.3301 13.9201C16.0632 12.187 18.4139 11.2133 20.8649 11.2133Z" fill="#7BB1F1"/>
</svg>
