<svg width="67" height="66" viewBox="0 0 67 66" fill="none" xmlns="http://www.w3.org/2000/svg">
<path d="M17.1121 22.7578C17.1121 18.4116 18.8386 14.2433 21.9119 11.1701C24.9851 8.09682 29.1534 6.37029 33.4996 6.37029C37.8458 6.37029 42.0141 8.09682 45.0873 11.1701C48.1606 14.2433 49.8871 18.4116 49.8871 22.7578C49.8871 27.104 48.1606 31.2722 45.0873 34.3455C42.0141 37.4188 37.8458 39.1453 33.4996 39.1453C29.1534 39.1453 24.9851 37.4188 21.9119 34.3455C18.8386 31.2722 17.1121 27.104 17.1121 22.7578ZM50.8857 8.41873C46.7504 3.41286 40.5027 0.224976 33.4996 0.224976C26.4965 0.224976 20.2488 3.41286 16.1135 8.41873H8.91836C4.39899 8.41873 0.724609 12.0931 0.724609 16.6125V57.5812C0.724609 62.1006 4.39899 65.775 8.91836 65.775H58.0809C62.6002 65.775 66.2746 62.1006 66.2746 57.5812V16.6125C66.2746 12.0931 62.6002 8.41873 58.0809 8.41873H50.8857ZM38.6207 28.9031C38.6207 27.546 38.0958 26.3169 37.2252 25.3952L41.5269 15.3706C41.975 14.3336 41.4885 13.1301 40.4515 12.682C39.4145 12.2339 38.211 12.7204 37.7629 13.7575L33.4612 23.782C30.6446 23.7948 28.3785 26.0865 28.3785 28.9031C28.3785 31.7325 30.6702 34.0242 33.4996 34.0242C36.329 34.0242 38.6207 31.7325 38.6207 28.9031Z" fill="#7BB1F1"/>
</svg>
