<svg width="89" height="47" viewBox="0 0 89 47" fill="none" xmlns="http://www.w3.org/2000/svg">
<path fill-rule="evenodd" clip-rule="evenodd" d="M2.51508 17.2263C2.51508 18.8795 3.85082 20.2143 5.50508 20.2143H45.5567C47.211 20.2143 48.5467 18.8795 48.5467 17.2263C48.5467 17.0312 48.5364 16.8464 48.485 16.6513C47.9405 14.4951 43.738 0.5 25.5309 0.5C7.32374 0.5 3.1213 14.4951 2.57673 16.6513C2.53563 16.8464 2.51508 17.0312 2.51508 17.2263ZM13.5415 9.19547C13.8498 9.50356 14.023 9.92143 14.023 10.3571C14.023 10.7929 13.8498 11.2107 13.5415 11.5188C13.2332 11.8269 12.815 12 12.379 12C11.943 12 11.5248 11.8269 11.2165 11.5188C10.9082 11.2107 10.735 10.7929 10.735 10.3571C10.735 9.92143 10.9082 9.50356 11.2165 9.19547C11.5248 8.88737 11.943 8.71428 12.379 8.71428C12.815 8.71428 13.2332 8.88737 13.5415 9.19547ZM39.8452 11.5188C39.5369 11.8269 39.1188 12 38.6828 12C38.2468 12 37.8286 11.8269 37.5203 11.5188C37.212 11.2107 37.0388 10.7929 37.0388 10.3571C37.0388 9.92143 37.212 9.50356 37.5203 9.19547C37.8286 8.88737 38.2468 8.71428 38.6828 8.71428C39.1188 8.71428 39.5369 8.88737 39.8452 9.19547C40.1536 9.50356 40.3268 9.92143 40.3268 10.3571C40.3268 10.7929 40.1536 11.2107 39.8452 11.5188ZM26.6934 5.90975C27.0017 6.21785 27.1749 6.63572 27.1749 7.07143C27.1749 7.50714 27.0017 7.92501 26.6934 8.2331C26.3851 8.5412 25.9669 8.71428 25.5309 8.71428C25.0949 8.71428 24.6767 8.5412 24.3684 8.2331C24.0601 7.92501 23.8869 7.50714 23.8869 7.07143C23.8869 6.63572 24.0601 6.21785 24.3684 5.90975C24.6767 5.60166 25.0949 5.42857 25.5309 5.42857C25.9669 5.42857 26.3851 5.60166 26.6934 5.90975ZM5.80305 23.5C3.0802 23.5 0.871094 25.7076 0.871094 28.4286C0.871094 31.1496 3.0802 33.3571 5.80305 33.3571H45.2587C47.9816 33.3571 50.1907 31.1496 50.1907 28.4286C50.1907 25.7076 47.9816 23.5 45.2587 23.5H5.80305ZM4.15907 36.6429C3.25487 36.6429 2.51508 37.3821 2.51508 38.2857V39.9286C2.51508 43.5531 5.46398 46.5 9.09102 46.5H41.9707C45.5978 46.5 48.5467 43.5531 48.5467 39.9286V38.2857C48.5467 37.3821 47.8069 36.6429 46.9027 36.6429H4.15907ZM54.5171 1.41641C55.0544 0.832421 55.8155 0.5 56.6124 0.5H85.2658C86.0627 0.5 86.8149 0.832421 87.3611 1.41641C87.9073 2.00039 88.1759 2.78203 88.1222 3.58164L85.5434 39.8246C85.2748 43.5891 82.1587 46.5 78.398 46.5H63.4803C59.7195 46.5 56.6034 43.5891 56.3348 39.8246L53.756 3.58164C53.6933 2.78203 53.9799 2.00039 54.5171 1.41641ZM59.6926 6.25L60.2836 14.5605L62.4505 15.6477C64.1877 16.5191 66.2292 16.5191 67.9663 15.6477C69.8377 14.7133 72.0405 14.7133 73.9119 15.6477C75.649 16.5191 77.6906 16.5191 79.4277 15.6477L81.5946 14.5605L82.1856 6.25H59.6926Z" fill="#7BB1F1"/>
</svg>
