<svg width="219" height="78" viewBox="0 0 219 78" fill="none" xmlns="http://www.w3.org/2000/svg">
<mask id="path-1-inside-1_285_7496" fill="white">
<path fill-rule="evenodd" clip-rule="evenodd" d="M0.774414 69.1613C0.774414 73.5796 4.35614 77.1613 8.77442 77.1613H210.873C215.291 77.1613 218.873 73.5796 218.873 69.1613V32.9454C218.873 28.5272 215.291 24.9454 210.873 24.9454L146.497 24.9454C142.78 24.9454 139.537 22.371 137.956 19.006C134.577 11.812 126.695 0.660962 110.328 0.79558C94.0672 0.929323 86.1477 11.9811 82.7332 19.0859C81.1354 22.4106 77.9098 24.9454 74.221 24.9454L8.77441 24.9454C4.35614 24.9454 0.774414 28.5272 0.774414 32.9455V69.1613ZM110.006 53.8629C120.326 53.8629 128.692 45.1704 128.692 34.4476C128.692 23.7248 120.326 15.0323 110.006 15.0323C99.6866 15.0323 91.3209 23.7248 91.3209 34.4476C91.3209 45.1704 99.6866 53.8629 110.006 53.8629Z"/>
</mask>
<path fill-rule="evenodd" clip-rule="evenodd" d="M0.774414 69.1613C0.774414 73.5796 4.35614 77.1613 8.77442 77.1613H210.873C215.291 77.1613 218.873 73.5796 218.873 69.1613V32.9454C218.873 28.5272 215.291 24.9454 210.873 24.9454L146.497 24.9454C142.78 24.9454 139.537 22.371 137.956 19.006C134.577 11.812 126.695 0.660962 110.328 0.79558C94.0672 0.929323 86.1477 11.9811 82.7332 19.0859C81.1354 22.4106 77.9098 24.9454 74.221 24.9454L8.77441 24.9454C4.35614 24.9454 0.774414 28.5272 0.774414 32.9455V69.1613ZM110.006 53.8629C120.326 53.8629 128.692 45.1704 128.692 34.4476C128.692 23.7248 120.326 15.0323 110.006 15.0323C99.6866 15.0323 91.3209 23.7248 91.3209 34.4476C91.3209 45.1704 99.6866 53.8629 110.006 53.8629Z" fill="#333333"/>
<path d="M110.328 0.79558L110.32 -0.204386L110.328 0.79558ZM8.77441 24.9454V23.9454V24.9454ZM137.956 19.006L137.051 19.4312L137.956 19.006ZM210.873 24.9454V25.9454V24.9454ZM82.7332 19.0859L81.8319 18.6527L82.7332 19.0859ZM210.873 76.1613H8.77442V78.1613H210.873V76.1613ZM217.873 32.9454V69.1613H219.873V32.9454H217.873ZM146.497 25.9454L210.873 25.9454V23.9454L146.497 23.9454V25.9454ZM110.336 1.79555C126.129 1.66565 133.743 12.3875 137.051 19.4312L138.862 18.5809C135.412 11.2366 127.261 -0.343725 110.32 -0.204386L110.336 1.79555ZM83.6345 19.519C86.9771 12.5638 94.633 1.9247 110.336 1.79555L110.32 -0.204386C93.5013 -0.066057 85.3182 11.3984 81.8319 18.6527L83.6345 19.519ZM8.77441 25.9454L74.221 25.9454V23.9454L8.77441 23.9454V25.9454ZM1.77441 69.1613V32.9455H-0.225586V69.1613H1.77441ZM127.692 34.4476C127.692 44.6545 119.738 52.8629 110.006 52.8629V54.8629C120.914 54.8629 129.692 45.6862 129.692 34.4476H127.692ZM110.006 16.0323C119.738 16.0323 127.692 24.2406 127.692 34.4476H129.692C129.692 23.209 120.914 14.0323 110.006 14.0323V16.0323ZM92.3209 34.4476C92.3209 24.2406 100.275 16.0323 110.006 16.0323V14.0323C99.0986 14.0323 90.3209 23.209 90.3209 34.4476H92.3209ZM110.006 52.8629C100.275 52.8629 92.3209 44.6545 92.3209 34.4476H90.3209C90.3209 45.6862 99.0986 54.8629 110.006 54.8629V52.8629ZM8.77441 23.9454C3.80385 23.9454 -0.225586 27.9749 -0.225586 32.9455H1.77441C1.77441 29.0795 4.90842 25.9454 8.77441 25.9454V23.9454ZM146.497 23.9454C143.257 23.9454 140.319 21.6845 138.862 18.5809L137.051 19.4312C138.755 23.0575 142.302 25.9454 146.497 25.9454V23.9454ZM219.873 32.9454C219.873 27.9749 215.844 23.9454 210.873 23.9454V25.9454C214.739 25.9454 217.873 29.0795 217.873 32.9454H219.873ZM8.77442 76.1613C4.90842 76.1613 1.77441 73.0273 1.77441 69.1613H-0.225586C-0.225586 74.1319 3.80385 78.1613 8.77442 78.1613V76.1613ZM81.8319 18.6527C80.3581 21.7192 77.4362 23.9454 74.221 23.9454V25.9454C78.3833 25.9454 81.9126 23.1019 83.6345 19.519L81.8319 18.6527ZM210.873 78.1613C215.844 78.1613 219.873 74.1319 219.873 69.1613H217.873C217.873 73.0273 214.739 76.1613 210.873 76.1613V78.1613Z" fill="#333333" mask="url(#path-1-inside-1_285_7496)"/>
</svg>
