<svg width="40" height="40" viewBox="0 0 40 40" fill="none" xmlns="http://www.w3.org/2000/svg">
<path d="M32.3912 31.067C36.9218 27.884 39.826 23.0049 39.826 17.5218C39.826 7.94175 30.9507 0.17395 19.9999 0.17395C9.0491 0.17395 0.173828 7.94175 0.173828 17.5218C0.173828 22.9972 3.07804 27.884 7.60861 31.067C7.60861 31.098 7.60861 31.1212 7.60861 31.1522V36.1087C7.60861 38.161 9.27369 39.8261 11.326 39.8261H15.0434V36.1087C15.0434 35.4272 15.601 34.8696 16.2825 34.8696C16.964 34.8696 17.5217 35.4272 17.5217 36.1087V39.8261H22.4782V36.1087C22.4782 35.4272 23.0358 34.8696 23.7173 34.8696C24.3988 34.8696 24.9564 35.4272 24.9564 36.1087V39.8261H28.6738C30.7261 39.8261 32.3912 38.161 32.3912 36.1087V31.1522C32.3912 31.1212 32.3912 31.098 32.3912 31.067ZM7.60861 20C7.60861 18.6855 8.13081 17.4248 9.06034 16.4952C9.98987 15.5657 11.2506 15.0435 12.5651 15.0435C13.8797 15.0435 15.1404 15.5657 16.0699 16.4952C16.9994 17.4248 17.5217 18.6855 17.5217 20C17.5217 21.3146 16.9994 22.5753 16.0699 23.5048C15.1404 24.4344 13.8797 24.9566 12.5651 24.9566C11.2506 24.9566 9.98987 24.4344 9.06034 23.5048C8.13081 22.5753 7.60861 21.3146 7.60861 20ZM27.4347 15.0435C28.7492 15.0435 30.01 15.5657 30.9395 16.4952C31.869 17.4248 32.3912 18.6855 32.3912 20C32.3912 21.3146 31.869 22.5753 30.9395 23.5048C30.01 24.4344 28.7492 24.9566 27.4347 24.9566C26.1201 24.9566 24.8594 24.4344 23.9299 23.5048C23.0004 22.5753 22.4782 21.3146 22.4782 20C22.4782 18.6855 23.0004 17.4248 23.9299 16.4952C24.8594 15.5657 26.1201 15.0435 27.4347 15.0435Z" fill="#FF005C"/>
</svg>
