<svg width="239" height="103" viewBox="0 0 239 103" fill="none" xmlns="http://www.w3.org/2000/svg">
<path fill-rule="evenodd" clip-rule="evenodd" d="M119.5 70.7027C152.227 70.7027 181.903 66.9349 203.439 60.8155C211.435 58.5432 218.35 55.9355 223.895 53.0523C233.517 57.8931 239 63.4719 239 69.4108C239 87.9616 185.498 103 119.5 103C53.502 103 0 87.9616 0 69.4108C0 63.4719 5.48343 57.8931 15.1048 53.0523C20.6497 55.9355 27.5645 58.5432 35.5611 60.8155C57.0968 66.9349 86.7732 70.7027 119.5 70.7027ZM16.5556 52.3429C36.8539 62.5333 75.3504 69.4108 119.5 69.4108C163.65 69.4108 202.146 62.5333 222.444 52.3429C222.938 52.5776 223.422 52.8141 223.895 53.0523C225.811 52.0564 227.563 51.0276 229.139 49.9684C235.233 45.8743 239 41.1183 239 35.8216C239 30.525 235.233 25.769 229.139 21.6748C222.999 17.5495 214.198 13.885 203.439 10.8278C181.903 4.70835 152.227 0.940541 119.5 0.940541C86.7732 0.940541 57.0968 4.70835 35.5611 10.8278C24.8021 13.885 16.0015 17.5495 9.86084 21.6748C3.76669 25.769 0 30.525 0 35.8216C0 41.1183 3.76669 45.8743 9.86084 49.9684C11.4374 51.0276 13.1894 52.0564 15.1048 53.0523C15.5785 52.8141 16.0621 52.5776 16.5556 52.3429ZM16.5556 52.3429C6.83855 47.4646 1.29189 41.8272 1.29189 35.8216C1.29189 17.2708 54.2155 2.23243 119.5 2.23243C184.785 2.23243 237.708 17.2708 237.708 35.8216C237.708 41.8272 232.161 47.4646 222.444 52.3429C201.647 42.454 163.329 35.8216 119.5 35.8216C75.6707 35.8216 37.3526 42.454 16.5556 52.3429Z" fill="white"/>
<line x1="238.354" y1="35.8216" x2="238.354" y2="69.4108" stroke="white" stroke-width="1.29189"/>
<line x1="0.645946" y1="35.8216" x2="0.645947" y2="69.4108" stroke="white" stroke-width="1.29189"/>
</svg>
