<svg width="40" height="35" viewBox="0 0 40 35" fill="none" xmlns="http://www.w3.org/2000/svg">
<path d="M7.77778 5C5.9375 5 4.44444 6.67969 4.44444 8.75V17.5H11.1111V8.75C11.1111 6.67969 9.61806 5 7.77778 5ZM0 8.75C0 3.91406 3.47917 0 7.77778 0C12.0764 0 15.5556 3.91406 15.5556 8.75V26.25C15.5556 31.0859 12.0764 35 7.77778 35C3.47917 35 0 31.0859 0 26.25V8.75ZM38.5347 28.7031C38.0417 29.6641 36.8889 29.7266 36.1875 28.9453L23.1597 14.2891C22.4653 13.5078 22.5139 12.2031 23.375 11.6484C25 10.6016 26.8819 10 28.8889 10C35.0278 10 40 15.5937 40 22.5C40 24.7578 39.4653 26.875 38.5347 28.7031ZM34.4028 33.3516C32.7778 34.3984 30.8958 35 28.8889 35C22.75 35 17.7778 29.4063 17.7778 22.5C17.7778 20.2422 18.3125 18.125 19.2431 16.2969C19.7361 15.3359 20.8889 15.2734 21.5903 16.0547L34.6181 30.7109C35.3125 31.4922 35.2639 32.7969 34.4028 33.3516Z" fill="#FF005C"/>
</svg>
