<svg width="40" height="40" viewBox="0 0 40 40" fill="none" xmlns="http://www.w3.org/2000/svg">
<g clip-path="url(#clip0_270_7845)">
<path d="M4.64244 15.121L5.37043 16.3911C6.01323 17.514 7.06649 18.3427 8.31337 18.6989L12.7975 19.9768C14.1295 20.3563 15.0434 21.5722 15.0434 22.9585V26.0485C15.0434 26.9004 15.5236 27.6749 16.2825 28.0544C17.0415 28.4339 17.5217 29.2083 17.5217 30.0602V33.0806C17.5217 34.2888 18.6756 35.1639 19.8373 34.8309C21.0842 34.4746 22.0522 33.4756 22.3698 32.2132L22.5866 31.3458C22.9119 30.037 23.7638 28.914 24.9332 28.248L25.5605 27.8917C26.7222 27.2335 27.4347 25.9943 27.4347 24.6623V24.0195C27.4347 23.0359 27.0397 22.0911 26.3427 21.3941L26.0407 21.092C25.3437 20.395 24.3988 20 23.4153 20H20.0774C19.2177 20 18.3658 19.7754 17.6146 19.3495L14.9427 17.8238C14.6097 17.6302 14.3541 17.3204 14.2302 16.9564C13.9824 16.2129 14.3154 15.4075 15.0202 15.059L15.4771 14.8267C15.9882 14.5711 16.5846 14.5246 17.1267 14.7105L18.9234 15.3068C19.5585 15.5159 20.2555 15.2759 20.6195 14.726C20.9835 14.1839 20.9447 13.4636 20.5265 12.9602L19.4733 11.6979C18.6988 10.7685 18.7066 9.41322 19.4965 8.49936L20.7124 7.0821C21.3939 6.28441 21.5024 5.14596 20.9835 4.23985L20.7976 3.91457C20.5265 3.89909 20.2632 3.89134 19.9922 3.89134C12.8052 3.89134 6.71024 8.60778 4.64244 15.121ZM36.1086 20C36.1086 17.15 35.3651 14.4704 34.064 12.1393L32.0814 12.937C30.8655 13.4249 30.2382 14.7802 30.6487 16.0193L31.9575 19.9458C32.2286 20.7513 32.8869 21.3631 33.7078 21.5644L35.9615 22.1298C36.0544 21.4328 36.1009 20.7203 36.1009 20H36.1086ZM0.173828 20C0.173828 14.7418 2.26264 9.69899 5.98075 5.98088C9.69887 2.26276 14.7417 0.17395 19.9999 0.17395C25.2581 0.17395 30.301 2.26276 34.0191 5.98088C37.7372 9.69899 39.826 14.7418 39.826 20C39.826 25.2582 37.7372 30.3011 34.0191 34.0192C30.301 37.7373 25.2581 39.8261 19.9999 39.8261C14.7417 39.8261 9.69887 37.7373 5.98075 34.0192C2.26264 30.3011 0.173828 25.2582 0.173828 20Z" fill="#FF005C"/>
</g>
<defs>
<clipPath id="clip0_270_7845">
<rect width="40" height="40" fill="white"/>
</clipPath>
</defs>
</svg>
